<svg width="23" height="23" viewBox="0 0 23 23" fill="none" xmlns="http://www.w3.org/2000/svg">
<g clip-path="url(#clip0_1_1008)">
<g clip-path="url(#clip1_1_1008)">
<path fill-rule="evenodd" clip-rule="evenodd" d="M11.0501 3.39156C6.29561 3.39156 2.44136 7.24581 2.44136 12.0002C2.44136 16.7547 6.29561 20.6089 11.0501 20.6089C15.8045 20.6089 19.6588 16.7547 19.6588 12.0002C19.6588 7.24581 15.8045 3.39156 11.0501 3.39156ZM0.52832 12.0002C0.52832 6.18926 5.23907 1.47852 11.0501 1.47852C16.861 1.47852 21.5718 6.18926 21.5718 12.0002C21.5718 17.8113 16.861 22.522 11.0501 22.522C5.23907 22.522 0.52832 17.8113 0.52832 12.0002ZM10.0935 10.0872C10.0935 9.55894 10.5218 9.13069 11.0501 9.13069C11.5783 9.13069 12.0066 9.55894 12.0066 10.0872V10.2033C12.0066 10.4877 11.8936 10.7605 11.6925 10.9616L10.3737 12.2804C10.0002 12.6539 10.0002 13.2596 10.3737 13.6331C10.7472 14.0067 11.3529 14.0067 11.7264 13.6331L13.0452 12.3144C13.605 11.7545 13.9196 10.9951 13.9196 10.2033V10.0872C13.9196 8.50239 12.6349 7.21765 11.0501 7.21765C9.46525 7.21765 8.18049 8.50239 8.18049 10.0872V10.5655C8.18049 11.0937 8.60874 11.522 9.13702 11.522C9.66529 11.522 10.0935 11.0937 10.0935 10.5655V10.0872ZM12.0066 15.8263C12.0066 16.3546 11.5783 16.7828 11.0501 16.7828C10.5218 16.7828 10.0935 16.3546 10.0935 15.8263C10.0935 15.298 10.5218 14.8698 11.0501 14.8698C11.5783 14.8698 12.0066 15.298 12.0066 15.8263Z" fill="white"/>
</g>
</g>
<defs>
<clipPath id="clip0_1_1008">
<rect width="22" height="22" fill="white" transform="translate(0.0500488 0.80957)"/>
</clipPath>
<clipPath id="clip1_1_1008">
<rect width="22" height="22" fill="white" transform="translate(0.0500488 0.80957)"/>
</clipPath>
</defs>
</svg>
