<svg xmlns="http://www.w3.org/2000/svg" xmlns:xlink="http://www.w3.org/1999/xlink" viewBox="0 0 194.77 143.38"><defs><linearGradient id="Degradado_sin_nombre_20" x1="109.52" y1="76.19" x2="111.67" y2="100.25" gradientUnits="userSpaceOnUse"><stop offset="0" stop-color="#3b00a0"/><stop offset="0.13" stop-color="#4003a3"/><stop offset="0.3" stop-color="#500bad"/><stop offset="0.49" stop-color="#6919bc"/><stop offset="0.68" stop-color="#8c2cd2"/><stop offset="0.89" stop-color="#b844ed"/><stop offset="1" stop-color="#d554ff"/></linearGradient><linearGradient id="Degradado_sin_nombre_22" x1="122.81" y1="64.22" x2="74.33" y2="43.05" gradientUnits="userSpaceOnUse"><stop offset="0" stop-color="#fe0"/><stop offset="0.38" stop-color="#ffab17"/><stop offset="0.8" stop-color="#ff662f"/><stop offset="1" stop-color="#ff4a39"/></linearGradient><linearGradient id="Degradado_sin_nombre_23" x1="81.11" y1="79.65" x2="114.11" y2="63.86" gradientUnits="userSpaceOnUse"><stop offset="0" stop-color="#b13cff"/><stop offset="1" stop-color="#ff4a39"/></linearGradient><linearGradient id="linear-gradient" x1="71.31" y1="77.93" x2="83.01" y2="77.93" gradientUnits="userSpaceOnUse"><stop offset="0" stop-color="#ff4a39"/><stop offset="0.23" stop-color="#ee4763"/><stop offset="0.76" stop-color="#c540cc"/><stop offset="1" stop-color="#b13cff"/></linearGradient><linearGradient id="Degradado_sin_nombre_23-2" x1="43.6" y1="71.2" x2="148.84" y2="71.2" xlink:href="#Degradado_sin_nombre_23"/></defs><g style="isolation:isolate"><g id="Layer_2" data-name="Layer 2"><g id="DESIGNED_BY_FREEPIK" data-name="DESIGNED BY FREEPIK"><path d="M21.35,109.27C8.11,109.27,1,107,.09,102.46-1.4,94.8,16.37,85.32,31.55,78.72l.65,2C8.79,90.9,1.19,98.38,1.89,102c.38,1.94,3.28,3.47,8.19,4.32,5.21.9,12.48,1,21.59.44,18.83-1.26,43.35-5.62,69.05-12.26s49.49-14.79,67-22.93c8.47-3.93,15-7.65,19.36-11,4.12-3.19,6.19-6,5.81-7.94-.71-3.69-10.65-6.73-36.41-4.21l-.15-2.12c16.66-1.63,36.85-1.94,38.37,5.86,1.08,5.6-7.76,12.81-26.29,21.42-17.59,8.18-41.48,16.36-67.27,23s-50.43,11-69.35,12.31Q26.05,109.27,21.35,109.27Z" style="fill:#12204f"/><circle cx="99.3" cy="73.53" r="69.84" transform="translate(-22.91 91.75) rotate(-45)" style="fill:#12204f"/><circle cx="96.32" cy="69.86" r="69.84" transform="translate(-21.18 88.57) rotate(-45)" style="fill:#2d3556"/><circle cx="96.52" cy="71.84" r="58.13" transform="translate(-22.53 89.29) rotate(-45)" style="fill:#404769"/><circle cx="96.31" cy="69.81" r="58.13" style="fill:#121a3b"/><circle cx="96.64" cy="71.53" r="57.8" transform="translate(-22.27 89.28) rotate(-45)" style="fill:#222a4b"/><circle cx="96.5" cy="71.77" r="57.83" style="fill:#222a4b"/><path d="M96.29,80.48l8.14,16.26a9.68,9.68,0,0,0,8.66,5.35h12.36l-13.34-26V76" style="fill:url(#Degradado_sin_nombre_20)"/><g style="opacity:0.5;mix-blend-mode:overlay"><line x1="94.91" y1="80.48" x2="94.4" y2="79.47" style="fill:#fff"/><path d="M112.11,76.13V76l-1.53-.16,13,25.28H111.21a9.56,9.56,0,0,1-3.61-.71l.59.38,0,0,.56.3.11,0a5,5,0,0,0,.48.21l.18.08a5.17,5.17,0,0,0,.51.18l.18.06.49.13.2,0,.49.1.22,0,.51.06.2,0q.36,0,.72,0h12.36Z" style="fill:#fff"/></g><path d="M112.54,77l-.43-.84V76s-8.77-.93-18.23-1.4a26.47,26.47,0,0,0,1.36,5.92h1.05l.8,1.6A21.05,21.05,0,0,0,112.54,77Z" style="fill:#002894;opacity:0.30000000000000004;mix-blend-mode:multiply"/><path d="M105.43,53.36a5.16,5.16,0,0,1,.42.81,8.91,8.91,0,0,1,.53,1.7c1.21,4.54,5.11,13.54,2.05,22.15,0,0,1.53-.77,3.68-2V76c.41-.2.81-.42,1.2-.64l.59-.35a19.64,19.64,0,0,0,9.87-17.62c0-12.88-9.31-20.1-24.27-20.1H70.8v4a8.26,8.26,0,0,0,8.25,8.25H95.94c4,0,7.67.78,9.49,3.84Z" style="fill:url(#Degradado_sin_nombre_22)"/><path d="M73,41.55V39h28.7c6.69,0,12.25,1.45,16.35,4.2-4.21-3.86-10.58-5.92-18.55-5.92H70.8v2.58c-.14,3.36.6,6.34,4.22,8.68C73.35,46.77,73,44.15,73,41.55Z" style="fill:#fff;opacity:0.5;mix-blend-mode:overlay"/><path d="M123.7,55.5c-1.18,11.86-7.41,14.71-7.41,14.71,2-13.59-10.09-15-10.09-15,.06.2.11.42.18.69,1.21,4.54,5.11,13.54,2.05,22.15,0,0,1.53-.77,3.68-2V76c.41-.2.81-.42,1.2-.64l.59-.35a19.64,19.64,0,0,0,9.87-17.62C123.77,56.71,123.74,56.1,123.7,55.5Z" style="fill:#ff4a39;opacity:0.30000000000000004;mix-blend-mode:multiply"/><path d="M112.11,76a14.77,14.77,0,0,0-5.73-20.09,12.14,12.14,0,0,1,.26,2.61c0,7.22-5,8.78-10.7,8.78H94a8.25,8.25,0,0,0-8.25,8.25V88.37c1.27-1.8,3-7.5,18.12-8.6C107.66,79.1,109.82,77.53,112.11,76Z" style="fill:url(#Degradado_sin_nombre_23)"/><path d="M95.46,69H96c5.64,0,10.67-1.56,10.67-8.76,0-.31,0-.6,0-.89-.4,6.45-5.24,7.88-10.64,7.88H94a8.22,8.22,0,0,0-8.23,8.23v3.2A9.65,9.65,0,0,1,95.46,69Z" style="fill:#fff;opacity:0.5;mix-blend-mode:overlay"/><path d="M103.75,79.81c5.55-1.31,6.7-2.72,8-3.59a1.42,1.42,0,0,0,.52-.59,17.83,17.83,0,0,0,1.19-10.55c-1.19-6.48-5.78-8.64-6.89-9.07l0,2.51c0,.15,4.13,1.3,4.81,9.28.84,6.67-3.34,10.41-13.7,11.33a15.17,15.17,0,0,0-7.31,2.71h0c-3.29,2.64-4.41,4.33-4.63,6.44C89.79,80,100.89,80.48,103.75,79.81Z" style="fill:#d554ff;opacity:0.5;mix-blend-mode:multiply"/><path d="M79.9,53.49h.16a3,3,0,0,1,3,3v38a7.88,7.88,0,0,1-7.88,7.88h-.86a3,3,0,0,1-3-3V62.08a8.59,8.59,0,0,1,8.59-8.59Z" style="fill:url(#linear-gradient)"/><path d="M70.89,62V99.45c0,1.84,1.67,2.92,3.73,2.92a3,3,0,0,1-2.8-2.92V62c0-3.89,3.58-7.72,7.68-8.47C74.42,53.87,70.89,57.31,70.89,62Z" style="fill:#f669b7"/><path d="M71.18,62V99.45c0,1.84,1.68,2.92,3.73,2.92a3,3,0,0,1-2.79-2.92V62c0-3.89,3.57-7.72,7.67-8.47C74.71,53.87,71.18,57.31,71.18,62Z" style="fill:#f669b7"/><path d="M87.66,123.16h0c-1.69-.35-3.37-.75-5-1.2l.48-1.7c1.56.44,3.19.83,4.83,1.17h0l0,.13-.26,1.61Zm5.18.59L93,122c1.66.1,3.35.12,5,.07l.07,1.76C96.3,123.88,94.56,123.85,92.84,123.75Zm-15.08-3.38c-1.63-.6-3.23-1.27-4.77-2l.76-1.59c1.48.7,3,1.35,4.62,1.93Zm25.41,3-.23-1.75c1.64-.22,3.3-.53,4.91-.91l.41,1.72C106.59,122.83,104.88,123.15,103.17,123.38ZM68.43,116a49.61,49.61,0,0,1-4.32-2.85l1-1.42c1.33,1,2.73,1.9,4.17,2.75Zm44.8,5-.57-1.67c1.57-.54,3.13-1.17,4.64-1.86l.73,1.6C116.47,119.79,114.85,120.44,113.23,121ZM60.09,109.86a50.69,50.69,0,0,1-3.66-3.67L57.74,105a47.16,47.16,0,0,0,3.53,3.54Zm62.54,6.83-.89-1.52c1.43-.84,2.84-1.76,4.19-2.73l1,1.43A51,51,0,0,1,122.63,116.69ZM53.18,102.16a49.52,49.52,0,0,1-2.8-4.35l1.53-.88a46.14,46.14,0,0,0,2.7,4.2ZM131,110.64l-1.17-1.32c1.25-1.1,2.45-2.27,3.59-3.49l1.28,1.2C133.54,108.29,132.3,109.5,131,110.64ZM48,93.18c-.69-1.56-1.31-3.19-1.85-4.83l1.68-.55c.52,1.59,1.12,3.16,1.78,4.67Zm90,9.9-1.4-1.07c1-1.32,2-2.71,2.84-4.12l1.5.93C140.08,100.28,139.1,101.71,138.05,103.08ZM44.84,83.35c-.36-1.67-.65-3.39-.86-5.1L45.73,78c.2,1.66.48,3.32.83,4.93Zm98.65,10.94-1.59-.78c.73-1.49,1.39-3,2-4.59l1.66.61C144.93,91.14,144.24,92.74,143.49,94.29ZM43.61,73.09c0-1.71,0-3.45.11-5.17l1.76.12c-.11,1.66-.15,3.35-.1,5ZM147.09,84.6l-1.71-.45c.42-1.6.77-3.25,1-4.89l0-.12,1.74.27,0,.13C147.88,81.24,147.52,82.94,147.09,84.6Zm-101-21.53-1.74-.29v-.06c.27-1.68.62-3.36,1-5l1.71.44c-.41,1.59-.75,3.22-1,4.84ZM147,74.16c.1-1.66.12-3.34.06-5l1.76-.06c.06,1.71,0,3.45-.06,5.17ZM48.54,53.37l-1.66-.59c.58-1.62,1.24-3.23,2-4.78l1.59.74C49.74,50.25,49.1,51.8,48.54,53.37Zm98.08,10.81c-.23-1.64-.54-3.3-.93-4.91l1.72-.41a51.61,51.61,0,0,1,1,5.08ZM52.78,44.32l-1.52-.9c.88-1.48,1.84-2.94,2.85-4.32l1.42,1A49.22,49.22,0,0,0,52.78,44.32Zm91.51,10.15c-.54-1.57-1.17-3.13-1.86-4.64l1.6-.74c.72,1.56,1.37,3.18,1.93,4.8Zm-85.6-18.2-1.31-1.18A50.55,50.55,0,0,1,61,31.43l1.18,1.31A47,47,0,0,0,58.69,36.27Zm81.42,9.12c-.84-1.43-1.76-2.84-2.73-4.18l1.43-1c1,1.39,2,2.85,2.83,4.33ZM66.1,29.6l-1-1.43a49.63,49.63,0,0,1,4.35-2.81l.88,1.53C68.86,27.72,67.45,28.63,66.1,29.6Zm68.15,7.7c-1.1-1.24-2.28-2.45-3.49-3.58l1.2-1.29c1.26,1.17,2.47,2.42,3.61,3.7ZM74.75,24.64,74,23c1.57-.69,3.19-1.31,4.84-1.85l.54,1.68A46.81,46.81,0,0,0,74.75,24.64Zm52.18,5.86c-1.32-1-2.71-1.95-4.13-2.82l.93-1.5c1.46.9,2.9,1.88,4.27,2.92ZM84.25,21.56l-.38-1.72c1.66-.36,3.38-.65,5.1-.86l.21,1.75C87.51,20.93,85.85,21.21,84.25,21.56Zm34.17,3.71a47.75,47.75,0,0,0-4.6-2l.61-1.66a50.09,50.09,0,0,1,4.76,2ZM94.17,20.34l-.06-1.76c1.69-.06,3.43,0,5.16,0l-.08,1.76C97.5,20.29,95.81,20.28,94.17,20.34Zm14.88,1.47c-1.56-.41-3.17-.75-4.78-1h-.08L104.4,19l.14,0c1.66.27,3.33.62,5,1Z" style="fill:url(#Degradado_sin_nombre_23-2)"/><g style="opacity:0.08;mix-blend-mode:lighten"><path d="M130.73,9.05,26.47,70.26a69.41,69.41,0,0,0,7.59,31.25L154.3,30.92A69.83,69.83,0,0,0,130.73,9.05Z" style="fill:#fff"/><path d="M157.55,36.25,37.13,106.94a71.15,71.15,0,0,0,8,10.45L162.78,48.32A70.65,70.65,0,0,0,157.55,36.25Z" style="fill:#fff"/></g></g></g></g></svg>