<svg xmlns="http://www.w3.org/2000/svg" xmlns:xlink="http://www.w3.org/1999/xlink" viewBox="0 0 186.78 222.46"><defs><linearGradient id="Degradado_sin_nombre_20" x1="132.34" y1="133.02" x2="139.69" y2="215.23" gradientUnits="userSpaceOnUse"><stop offset="0" stop-color="#3b00a0"/><stop offset="0.13" stop-color="#4003a3"/><stop offset="0.3" stop-color="#500bad"/><stop offset="0.49" stop-color="#6919bc"/><stop offset="0.68" stop-color="#8c2cd2"/><stop offset="0.89" stop-color="#b844ed"/><stop offset="1" stop-color="#d554ff"/></linearGradient><linearGradient id="Degradado_sin_nombre_22" x1="177.75" y1="92.12" x2="12.12" y2="19.79" gradientUnits="userSpaceOnUse"><stop offset="0" stop-color="#fe0"/><stop offset="0.38" stop-color="#ffab17"/><stop offset="0.8" stop-color="#ff662f"/><stop offset="1" stop-color="#ff4a39"/></linearGradient><linearGradient id="Degradado_sin_nombre_23" x1="35.26" y1="144.84" x2="148.04" y2="90.9" gradientUnits="userSpaceOnUse"><stop offset="0" stop-color="#b13cff"/><stop offset="1" stop-color="#ff4a39"/></linearGradient><linearGradient id="linear-gradient" x1="1.79" y1="138.96" x2="41.78" y2="138.96" gradientUnits="userSpaceOnUse"><stop offset="0" stop-color="#ff4a39"/><stop offset="0.23" stop-color="#ee4763"/><stop offset="0.76" stop-color="#c540cc"/><stop offset="1" stop-color="#b13cff"/></linearGradient></defs><g style="isolation:isolate"><g id="Layer_2" data-name="Layer 2"><g id="WEB-logo-2"><path d="M87.12,147.68,115,203.23a33.09,33.09,0,0,0,29.59,18.27h42.24L141.2,132.83v-.6" style="fill:url(#Degradado_sin_nombre_20)"/><g style="opacity:0.5;mix-blend-mode:overlay"><line x1="82.42" y1="147.68" x2="80.69" y2="144.23" style="fill:#fff"/><path d="M141.2,132.83v-.6s-1.9-.2-5.23-.52l44.38,86.34H138.11a32.93,32.93,0,0,1-12.35-2.41c.66.46,1.34.88,2,1.29l.17.1c.63.36,1.27.71,1.92,1l.38.18c.53.26,1.07.5,1.62.73l.63.25c.58.23,1.17.43,1.76.63l.58.19c.56.17,1.13.32,1.7.46l.68.17c.56.13,1.12.23,1.68.33l.74.13c.58.09,1.16.15,1.74.2l.69.08q1.23.09,2.46.09h42.24Z" style="fill:#fff"/></g><path d="M142.67,135.68l-1.47-2.85v-.6s-30-3.16-62.3-4.78a92.16,92.16,0,0,0,4.63,20.23h3.59l2.74,5.48C99.15,154,121.42,153.68,142.67,135.68Z" style="fill:#002894;opacity:0.30000000000000004;mix-blend-mode:multiply"/><path d="M118.38,55a22.64,22.64,0,0,1,1.42,2.78,31.21,31.21,0,0,1,1.83,5.79c4.1,15.52,17.45,46.28,7,75.7,0,0,5.23-2.65,12.57-6.85v-.21c1.4-.69,2.76-1.42,4.1-2.17l2-1.2c21-12.62,33.71-33.05,33.71-60.22C181,24.66,149.23,0,98.12,0H.06V13.71A28.19,28.19,0,0,0,28.25,41.9H85.93c13.63,0,26.22,2.67,32.45,13.12Z" style="fill:url(#Degradado_sin_nombre_22)"/><path d="M7.56,14.67V5.86h98.06c22.86,0,41.84,5,55.86,14.34C147.1,7,125.35,0,98.12,0H.06V8.81c-.5,11.46,2,21.64,14.4,29.64C8.77,32.51,7.56,23.55,7.56,14.67Z" style="fill:#fff;opacity:0.5;mix-blend-mode:overlay"/><path d="M180.77,62.33c-4,40.53-25.3,50.26-25.3,50.26C162.23,66.15,121,61.25,121,61.25c.19.67.39,1.44.63,2.34,4.1,15.52,17.45,46.28,7,75.7,0,0,5.23-2.65,12.57-6.85v-.21c1.4-.69,2.76-1.42,4.1-2.17l2-1.2c21-12.62,33.71-33.05,33.71-60.22C181,66.48,180.92,64.39,180.77,62.33Z" style="fill:#ff4a39;opacity:0.30000000000000004;mix-blend-mode:multiply"/><path d="M141.2,132.23a51.6,51.6,0,0,0,4.7-37.3c-5.32-20.33-21.41-29.73-24.27-31.34a43.94,43.94,0,0,1,.85,8.92c0,24.66-17.23,30-36.55,30H79.31A28.19,28.19,0,0,0,51.12,130.7v44c4.36-6.17,10.44-25.62,61.91-29.4C126,143,133.36,137.61,141.2,132.23Z" style="fill:url(#Degradado_sin_nombre_23)"/><path d="M84.21,108.57h1.72c19.32,0,36.55-5.35,36.55-30,0-1.06,0-2.07-.1-3-1.36,22.09-17.94,27-36.45,27H79.31A28.19,28.19,0,0,0,51.12,130.7v11A33.08,33.08,0,0,1,84.21,108.57Z" style="fill:#fff;opacity:0.5;mix-blend-mode:overlay"/><path d="M112.62,145.38c19-4.46,22.9-9.3,27.43-12.25a4.87,4.87,0,0,0,1.78-2,61,61,0,0,0,4.07-36.06c-4.06-22.14-19.74-29.5-23.55-31l.13,8.58c0,.54,14.13,4.46,16.44,31.72,2.88,22.79-11.4,35.56-46.78,38.71-12.55,1.12-19.86,6.09-25,9.27h0c-11.21,9.05-15,14.81-15.82,22C64.92,145.92,102.86,147.68,112.62,145.38Z" style="fill:#d554ff;opacity:0.5;mix-blend-mode:multiply"/><path d="M31.13,55.46h.55a10.1,10.1,0,0,1,10.1,10.1v130a26.94,26.94,0,0,1-26.94,26.94h-3a10.1,10.1,0,0,1-10.1-10.1V84.8A29.34,29.34,0,0,1,31.13,55.46Z" style="fill:url(#linear-gradient)"/><path d="M1.37,84.4V212.5c0,6.27,5.71,10,12.73,10-5.26,0-9.55-5.26-9.55-10V84.4C4.55,71.12,16.77,58,30.78,55.46,13.41,56.78,1.37,68.53,1.37,84.4Z" style="fill:#f969b9"/></g></g></g></svg>