<svg width="23" height="23" viewBox="0 0 23 23" fill="none" xmlns="http://www.w3.org/2000/svg">
<g clip-path="url(#clip0_1_1013)">
<g clip-path="url(#clip1_1_1013)">
<path fill-rule="evenodd" clip-rule="evenodd" d="M16.2495 1.63186L16.3584 1.63188H16.8835L16.923 1.63188C17.693 1.63186 18.3285 1.63185 18.8462 1.67415C19.3838 1.71808 19.8781 1.81236 20.3423 2.04889C21.0621 2.41571 21.6475 3.00103 22.0144 3.72095C22.2509 4.18519 22.3451 4.67942 22.389 5.21709C22.4314 5.73475 22.4313 6.37021 22.4313 7.14017V7.17971V7.70501L22.4314 7.81399C22.4316 8.64491 22.4318 9.2201 22.2992 9.77226C22.182 10.2602 21.9888 10.7268 21.7266 11.1546C21.4299 11.6388 21.0231 12.0454 20.4354 12.6328L20.3583 12.7099L19.1654 13.9029L19.5399 15.7734L19.5647 15.897C19.7174 16.6575 19.8326 17.2313 19.7771 17.7999C19.7282 18.3005 19.5811 18.7867 19.344 19.2304C19.075 19.7342 18.6609 20.1479 18.1121 20.6959L18.0229 20.7852L16.4129 22.3952C16.214 22.5939 15.9379 22.6952 15.6576 22.6721C15.3774 22.6488 15.1216 22.5035 14.9582 22.2747L13.0747 19.6379C11.7372 20.2996 10.1674 20.2992 8.83027 19.6367C8.12435 19.2869 7.49789 18.6599 6.58109 17.7423L6.45129 17.6125L6.32144 17.4827C5.40396 16.5659 4.77703 15.9395 4.42723 15.2336C3.7646 13.8965 3.76414 12.3267 4.42586 10.9892L1.78922 9.10582C1.56042 8.94239 1.41512 8.68657 1.39193 8.40636C1.36875 8.12615 1.47002 7.84992 1.66884 7.65111L3.27915 6.04084L3.36831 5.95162C3.91629 5.40299 4.32985 4.98895 4.83363 4.71989C5.27731 4.48293 5.76334 4.33577 6.26395 4.28684C6.83237 4.23128 7.40614 4.3464 8.16641 4.49894L8.29008 4.52373L10.1607 4.89787L11.3532 3.70525L11.4302 3.62815C12.0176 3.04034 12.4243 2.63346 12.9086 2.33671C13.3364 2.07446 13.803 1.88121 14.291 1.76403C14.8432 1.63145 15.4185 1.63162 16.2495 1.63186ZM14.1036 16.2596L14.6305 15.7327L17.4506 12.9121L17.4625 12.9005L19.0056 11.3572C19.6995 10.6633 19.9318 10.4222 20.0955 10.1551C20.2528 9.89838 20.3688 9.61848 20.4391 9.3257C20.5121 9.02107 20.5183 8.6863 20.5183 7.70501V7.17971C20.5183 6.36037 20.5176 5.80339 20.4824 5.37286C20.4481 4.95352 20.386 4.73906 20.3097 4.58946C20.1264 4.2295 19.8337 3.93684 19.4737 3.75343C19.3241 3.6772 19.1097 3.6151 18.6903 3.58084C18.2598 3.54567 17.7028 3.54492 16.8835 3.54492H16.3584C15.377 3.54492 15.0423 3.55107 14.7376 3.62422C14.4448 3.69451 14.1648 3.81047 13.9081 3.96782C13.641 4.13154 13.3999 4.36393 12.706 5.05792L11.16 6.60396L11.1515 6.61256L7.62527 10.1392C6.6648 11.1022 6.32202 11.4712 6.1413 11.8359C5.74349 12.6388 5.74351 13.5814 6.14134 14.3842C6.28682 14.6778 6.5373 14.9742 7.13039 15.5808L8.36434 14.3468C8.73788 13.9733 9.34352 13.9733 9.71706 14.3468C10.0906 14.7203 10.0906 15.326 9.71706 15.6995L8.48312 16.9335C9.0897 17.5266 9.38609 17.777 9.67968 17.9225C10.4825 18.3203 11.4252 18.3203 12.228 17.9225C12.6145 17.7309 13.0059 17.3574 14.1036 16.2596ZM15.1133 17.9554L14.5945 18.4743L15.8586 20.2441L16.6702 19.4324C17.3477 18.7549 17.5385 18.5502 17.6565 18.3292C17.775 18.1074 17.8486 17.8642 17.8731 17.6139C17.8975 17.3645 17.852 17.0883 17.6641 16.1489L17.5399 15.5286L16.005 17.0636L15.4563 17.6123L15.3265 17.7422L15.1133 17.9554ZM6.45112 8.60772L8.53502 6.52366L7.91489 6.39961C6.97555 6.21174 6.6994 6.16644 6.45004 6.19081C6.19974 6.21527 5.95673 6.28886 5.73489 6.40733C5.51388 6.52537 5.30923 6.71624 4.63186 7.39359L3.81998 8.20545L5.5896 9.46951L6.02004 9.03904C6.11663 8.942 6.21693 8.84177 6.32097 8.7378L6.45112 8.60772ZM13.8253 9.28362C13.8253 8.75535 14.2536 8.3271 14.7818 8.3271C15.3101 8.3271 15.7383 8.75535 15.7383 9.28362C15.7383 9.8119 15.3101 10.2401 14.7818 10.2401C14.2536 10.2401 13.8253 9.8119 13.8253 9.28362ZM14.7818 6.41406C13.197 6.41406 11.9122 7.69881 11.9122 9.28362C11.9122 10.8684 13.197 12.1532 14.7818 12.1532C16.3667 12.1532 17.6514 10.8684 17.6514 9.28362C17.6514 7.69881 16.3667 6.41406 14.7818 6.41406Z" fill="white"/>
</g>
</g>
<defs>
<clipPath id="clip0_1_1013">
<rect width="22" height="22" fill="white" transform="translate(0.909912 0.80957)"/>
</clipPath>
<clipPath id="clip1_1_1013">
<rect width="22" height="22" fill="white" transform="translate(0.909912 0.80957)"/>
</clipPath>
</defs>
</svg>
