<svg  width="79" height="33" xmlns="http://www.w3.org/2000/svg" viewBox="0 0 75.52 23.73"><g id="Layer_2" data-name="Layer 2"><g id="Layer_1-2" data-name="Layer 1"><path d="M40.49,17.28h.9v6.39h-.9Zm.43,0h3.67v.85H40.92Zm0,2.79h3.19v.85H40.92Zm0,2.75h3.67v.85H40.92Z" style="fill:#fff"/><path d="M45.87,17.27h.9v6.4h-.9Zm.39,2.84h2.18a.84.84,0,0,0,.45-.12.81.81,0,0,0,.31-.35,1.28,1.28,0,0,0,0-1,.81.81,0,0,0-.31-.35.84.84,0,0,0-.45-.12H46.26v-.86H48.4a2.06,2.06,0,0,1,1,.23,1.63,1.63,0,0,1,.65.65,2.16,2.16,0,0,1,0,1.94,1.72,1.72,0,0,1-.66.65,2,2,0,0,1-1,.22H46.26Zm1.74.66.89-.2,1.64,3.1H49.46Z" style="fill:#fff"/><path d="M52.48,23.44a2.11,2.11,0,0,1-.78-.84,2.74,2.74,0,0,1-.27-1.25V19.6a2.74,2.74,0,0,1,.27-1.25,2.11,2.11,0,0,1,.78-.84,2.26,2.26,0,0,1,1.17-.3,2.15,2.15,0,0,1,1,.24,2,2,0,0,1,.77.66,2.42,2.42,0,0,1,.42,1h-.92a1.27,1.27,0,0,0-.27-.53,1.6,1.6,0,0,0-.46-.37,1.33,1.33,0,0,0-.55-.12,1.18,1.18,0,0,0-.68.19,1.2,1.2,0,0,0-.46.53,1.77,1.77,0,0,0-.16.79v1.75a1.8,1.8,0,0,0,.16.79,1.2,1.2,0,0,0,.46.53,1.18,1.18,0,0,0,.68.19,1.33,1.33,0,0,0,.55-.12,1.52,1.52,0,0,0,.46-.35,1.35,1.35,0,0,0,.27-.55h.92a2.38,2.38,0,0,1-.42,1,2.11,2.11,0,0,1-1.78.9A2.26,2.26,0,0,1,52.48,23.44Z" style="fill:#fff"/><path d="M60,21v.85H57V21Z" style="fill:#fff"/><path d="M61.21,22.89l2.23-3a2.17,2.17,0,0,0,.3-.53,1.42,1.42,0,0,0,.11-.51h0a.76.76,0,0,0-.22-.59,1,1,0,0,0-1.27,0,1.07,1.07,0,0,0-.3.65h-.92a2.37,2.37,0,0,1,.32-.94,1.55,1.55,0,0,1,.63-.59,1.83,1.83,0,0,1,.89-.21,2.25,2.25,0,0,1,1,.2,1.35,1.35,0,0,1,.61.57,1.81,1.81,0,0,1,.21.9h0a1.87,1.87,0,0,1-.14.71,2.76,2.76,0,0,1-.39.71L62.4,22.82h2.42v.85H61.21Z" style="fill:#fff"/><path d="M66.42,23.25A1.81,1.81,0,0,1,66,21.92V19a1.65,1.65,0,0,1,1.82-1.81A1.64,1.64,0,0,1,69.61,19v2.91a1.64,1.64,0,0,1-1.83,1.81A1.82,1.82,0,0,1,66.42,23.25Zm2.06-.62a1,1,0,0,0,.23-.71V19a1,1,0,0,0-.22-.71.9.9,0,0,0-.71-.25.88.88,0,0,0-.7.25,1,1,0,0,0-.22.71v2.91a1,1,0,0,0,.22.71.89.89,0,0,0,.7.25A.88.88,0,0,0,68.48,22.63Z" style="fill:#fff"/><path d="M16.47,14.43c0-2.26-1.36-3-4.08-3.36-1.94-.26-2.33-.78-2.33-1.69S10.71,7.89,12,7.89a1.92,1.92,0,0,1,2.14,1.36.48.48,0,0,0,.45.33h1a.45.45,0,0,0,.45-.46V9.06A3.23,3.23,0,0,0,13.17,6.4V4.85c0-.26-.2-.45-.52-.52h-1c-.26,0-.45.2-.52.52V6.34A3.3,3.3,0,0,0,8,9.51c0,2.14,1.3,3,4,3.3,1.82.33,2.4.71,2.4,1.75s-.91,1.75-2.14,1.75c-1.68,0-2.26-.71-2.46-1.68a.46.46,0,0,0-.45-.39H8.25a.44.44,0,0,0-.45.45v.06a3.61,3.61,0,0,0,3.43,3.11v1.56c0,.25.19.45.52.51h1c.25,0,.45-.19.51-.51V17.86A3.55,3.55,0,0,0,16.47,14.43Z" style="fill:#fff"/><path d="M8.7,21.17a10.1,10.1,0,0,1-6-13,10,10,0,0,1,6-6,.67.67,0,0,0,.41-.67V.54A.52.52,0,0,0,8.7,0c-.06,0-.2,0-.26.07a12.18,12.18,0,0,0,0,23.19A.4.4,0,0,0,9,23c.07-.06.07-.13.07-.27v-.94A.86.86,0,0,0,8.7,21.17ZM15.83.07a.4.4,0,0,0-.6.27c-.07.07-.07.13-.07.27v1a.88.88,0,0,0,.4.67,10.09,10.09,0,0,1,6,13,10,10,0,0,1-6,6,.66.66,0,0,0-.4.67v.95a.51.51,0,0,0,.4.54.39.39,0,0,0,.27-.07,12.24,12.24,0,0,0,0-23.26Z" style="fill:#fff"/><path d="M36.05,3.77v6.91a2.53,2.53,0,0,0,.64,1.86,2.55,2.55,0,0,0,1.81.62,2.5,2.5,0,0,0,1.81-.62A2.45,2.45,0,0,0,41,10.68V3.77h1.78v6.88a4.23,4.23,0,0,1-.58,2.25,3.58,3.58,0,0,1-1.54,1.37,5.31,5.31,0,0,1-4.28,0,3.5,3.5,0,0,1-1.51-1.37,4.22,4.22,0,0,1-.56-2.25V3.77Zm12.59,11a4.94,4.94,0,0,1-2-.37,3.27,3.27,0,0,1-1.37-1.1,2.67,2.67,0,0,1-.5-1.63h1.9a1.7,1.7,0,0,0,.55,1.15,2,2,0,0,0,1.39.45,2.14,2.14,0,0,0,1.43-.43,1.5,1.5,0,0,0,.52-1.16,1.24,1.24,0,0,0-.33-.89,2.16,2.16,0,0,0-.8-.53,11.41,11.41,0,0,0-1.31-.4,13.47,13.47,0,0,1-1.73-.57,2.77,2.77,0,0,1-1.12-.9,2.56,2.56,0,0,1-.47-1.62,2.82,2.82,0,0,1,.47-1.64A3,3,0,0,1,46.61,4a4.74,4.74,0,0,1,2-.37,4,4,0,0,1,2.57.79,2.85,2.85,0,0,1,1.12,2.16h-2a1.43,1.43,0,0,0-.56-1,2.1,2.1,0,0,0-1.36-.42,1.93,1.93,0,0,0-1.25.39,1.38,1.38,0,0,0-.48,1.13,1.21,1.21,0,0,0,.29.82,2.23,2.23,0,0,0,.78.5A12.36,12.36,0,0,0,49,8.39,11.77,11.77,0,0,1,50.74,9a2.87,2.87,0,0,1,1.16.92,2.58,2.58,0,0,1,.48,1.64,2.94,2.94,0,0,1-.45,1.56,3.18,3.18,0,0,1-1.3,1.18A4.29,4.29,0,0,1,48.64,14.72ZM58,3.77a6.5,6.5,0,0,1,3,.67,4.67,4.67,0,0,1,2,1.9,5.63,5.63,0,0,1,.72,2.89,5.53,5.53,0,0,1-.72,2.87,4.73,4.73,0,0,1-2,1.87,6.76,6.76,0,0,1-3,.64H54.48V3.77Zm0,9.39a3.91,3.91,0,0,0,2.92-1,4,4,0,0,0,1-2.9,4.12,4.12,0,0,0-1-2.95A3.85,3.85,0,0,0,58,5.22H56.26v7.94Zm6.92-4a5.59,5.59,0,0,1,.74-2.86,5.25,5.25,0,0,1,2-2,5.86,5.86,0,0,1,5.87.14,4.76,4.76,0,0,1,2,2.4H73.38a2.86,2.86,0,0,0-1.17-1.28,3.44,3.44,0,0,0-1.73-.42,3.85,3.85,0,0,0-1.92.48,3.41,3.41,0,0,0-1.32,1.39,4.56,4.56,0,0,0-.47,2.11,4.52,4.52,0,0,0,.47,2.1,3.52,3.52,0,0,0,1.32,1.41,3.85,3.85,0,0,0,1.92.48,3.44,3.44,0,0,0,1.73-.42,2.86,2.86,0,0,0,1.17-1.28h2.14a4.76,4.76,0,0,1-2,2.4,5.69,5.69,0,0,1-3.08.84,5.61,5.61,0,0,1-2.79-.7,5.45,5.45,0,0,1-2-2A5.55,5.55,0,0,1,64.94,9.17Z" style="fill:#fff"/></g></g></svg>